<?xml version="1.0" encoding="utf-8"?>
<!-- Generator: Adobe Illustrator 27.5.0, SVG Export Plug-In . SVG Version: 6.00 Build 0)  -->
<svg version="1.1" id="Layer_1" xmlns="http://www.w3.org/2000/svg" xmlns:xlink="http://www.w3.org/1999/xlink" x="0px" y="0px"
	 viewBox="0 0 2000 1300" style="enable-background:new 0 0 2000 1300;" xml:space="preserve">
<style type="text/css">
	.st0{fill:#2B01FF;}
</style>
<g>
	<g>
		<g>
			<g>
				<g>
					<path class="st0" d="M1178.14,486.09h28.8v-23h-24.48h-23.19h-46.63h-20.7h-2.91c-8.34,32.28-33.81,57.75-66.09,66.09v2.91
						v20.69v46.63v23.19v24.48h23v-28.8c16.88-4.34,32.8-11.06,47.44-19.71l20.4,20.4l16.26-16.26l-17.31-17.31c0,0,0,0,0,0
						l-16.43-16.43c-14.99,11.23-32,19.89-50.37,25.37v-48.86c26.52-11.59,47.81-32.88,59.4-59.4h48.86
						c-5.49,18.37-14.14,35.38-25.37,50.37l1.21,1.21l15.21,15.21l17.31,17.31l16.26-16.26l-20.4-20.4
						C1167.08,518.89,1173.79,502.97,1178.14,486.09z"/>
					<path class="st0" d="M910.85,463.09h-2.91h-20.69h-46.63h-23.19h-24.48v23h28.8c4.34,16.88,11.06,32.8,19.71,47.44l-20.4,20.4
						l16.26,16.26l17.31-17.31l15.21-15.21l1.21-1.21c-11.23-14.99-19.89-32-25.37-50.37h48.86c11.59,26.52,32.88,47.81,59.4,59.4
						v48.86c-18.37-5.49-35.38-14.14-50.37-25.37l-1.21,1.21l-15.21,15.21l-17.31,17.31l16.26,16.26l20.4-20.4
						c14.64,8.65,30.56,15.36,47.44,19.71v28.8h23V622.6v-23.19v-46.63v-20.69v-2.91C944.66,520.84,919.19,495.37,910.85,463.09z"/>
					<path class="st0" d="M1089.03,417.09h23.61c0,0,0,0,0,0h46.63c0,0,0,0,0,0h23.19l0,0h24.48v-23h-28.8
						c-4.34-16.88-11.06-32.8-19.71-47.44l20.4-20.4l-16.26-16.26v0l-17.31,17.31l-15.21,15.21l-1.21,1.21
						c11.23,14.99,19.89,32,25.37,50.37h-48.86c-11.59-26.52-32.88-47.81-59.4-59.4v-48.86c18.37,5.49,35.38,14.14,50.37,25.37
						l1.21-1.21l15.21-15.21l17.31-17.31h0l-16.26-16.26l-20.4,20.4c-14.64-8.65-30.56-15.36-47.44-19.71v-28.8h-23v24.48v23.19
						v46.63v20.69V351C1055.22,359.34,1080.69,384.81,1089.03,417.09z"/>
					<path class="st0" d="M1045.94,440.09c0-25.4-20.59-46-46-46c-25.4,0-46,20.59-46,46s20.59,46,46,46
						C1025.34,486.09,1045.94,465.49,1045.94,440.09z M999.94,463.09c-12.68,0-23-10.32-23-23s10.32-23,23-23
						c12.68,0,23,10.32,23,23S1012.62,463.09,999.94,463.09z"/>
					<rect x="953.94" y="187.1" class="st0" width="23" height="23"/>
					<rect x="1022.94" y="187.1" class="st0" width="23" height="23"/>
					<rect x="953.94" y="670.08" class="st0" width="23" height="23"/>
					<rect x="1022.94" y="670.08" class="st0" width="23" height="23"/>
					<rect x="746.95" y="463.09" class="st0" width="23" height="23"/>
					<rect x="746.95" y="394.09" class="st0" width="23" height="23"/>
					<rect x="1229.93" y="463.09" class="st0" width="23" height="23"/>
					<rect x="1229.93" y="394.09" class="st0" width="23" height="23"/>
					
						<rect x="1134.81" y="233.43" transform="matrix(0.7071 -0.7071 0.7071 0.7071 162.5516 882.3006)" class="st0" width="23" height="23"/>
					
						<rect x="1183.6" y="282.22" transform="matrix(0.7071 -0.7071 0.7071 0.7071 142.3426 931.0895)" class="st0" width="23" height="23"/>
					
						<rect x="793.28" y="574.96" transform="matrix(0.7071 -0.7071 0.7071 0.7071 -178.9718 740.8369)" class="st0" width="23" height="23"/>
					
						<rect x="842.07" y="623.75" transform="matrix(0.7071 -0.7071 0.7071 0.7071 -199.1809 789.626)" class="st0" width="23" height="23"/>
					
						<rect x="793.28" y="282.22" transform="matrix(0.7071 -0.7071 0.7071 0.7071 28.0153 655.082)" class="st0" width="23" height="23"/>
					<path class="st0" d="M841.45,346.65c-8.65,14.64-15.36,30.56-19.71,47.44h-28.8v23h24.48l0,0h23.19c0,0,0,0,0,0h46.63
						c0,0,0,0,0,0h23.61c8.34-32.28,33.81-57.75,66.09-66.09v-2.91V327.4v-46.63v-23.19v-24.48h-23v28.8
						c-16.88,4.34-32.8,11.06-47.44,19.71l-20.4-20.4l-16.26,16.26l17.31,17.31l15.21,15.21l1.21,1.21
						c14.99-11.23,32-19.89,50.37-25.37v48.86c-26.52,11.59-47.81,32.88-59.4,59.4h-48.86c5.49-18.37,14.14-35.38,25.37-50.37
						l-16.43-16.43c0,0,0,0,0,0l-17.31-17.31l-16.26,16.26L841.45,346.65z"/>
					
						<rect x="842.07" y="233.43" transform="matrix(0.7071 -0.7071 0.7071 0.7071 76.8116 675.3059)" class="st0" width="23" height="23"/>
					
						<rect x="1134.81" y="623.75" transform="matrix(0.7071 -0.7071 0.7071 0.7071 -113.4484 996.596)" class="st0" width="23" height="23"/>
					
						<rect x="1183.6" y="574.96" transform="matrix(0.7071 -0.7071 0.7071 0.7071 -64.6604 1016.8052)" class="st0" width="23" height="23"/>
				</g>
			</g>
		</g>
	</g>
	<g>
		<path d="M322.53,974.42c-5.93-4.72-12.47-8.6-19.61-11.61c-7.14-3.02-14.28-5.73-21.42-8.14c-7.14-2.41-13.68-4.98-19.61-7.69
			c-5.93-2.71-10.71-6.03-14.33-9.95c-3.62-3.92-5.43-9.1-5.43-15.53c0-7.64,2.96-13.57,8.9-17.8c5.93-4.22,14.13-6.33,24.58-6.33
			c8.45,0,15.93,1.66,22.47,4.98c6.53,3.32,12.82,8.4,18.85,15.23l23.53-23.53c-6.84-8.45-15.74-15.38-26.69-20.81
			c-10.96-5.43-23.38-8.14-37.25-8.14c-12.87,0-24.54,2.31-34.99,6.94c-10.46,4.63-18.75,11.31-24.88,20.06
			c-6.14,8.75-9.2,19.36-9.2,31.82c0,10.86,1.81,19.81,5.43,26.85c3.62,7.04,8.39,12.77,14.33,17.19
			c5.93,4.43,12.46,8.1,19.61,11.01c7.13,2.92,14.28,5.53,21.42,7.84c7.13,2.31,13.67,4.93,19.61,7.84
			c5.93,2.92,10.71,6.59,14.33,11.01c3.62,4.43,5.43,10.16,5.43,17.19c0,8.45-3.47,15.08-10.41,19.91
			c-6.94,4.83-16.24,7.24-27.9,7.24c-12.47,0-22.73-2.36-30.77-7.09c-8.05-4.72-14.98-11.31-20.81-19.76l-23.53,23.53
			c9.25,11.67,19.7,20.51,31.37,26.54c11.66,6.03,25.84,9.05,42.53,9.05c22.72,0,40.77-5.53,54.14-16.59
			c13.37-11.06,20.06-26.04,20.06-44.94c0-11.26-1.81-20.61-5.43-28.05C333.24,985.23,328.46,979.14,322.53,974.42z"/>
		<path d="M557.35,938.07c-8.45-4.42-17.9-6.64-28.35-6.64c-10.26,0-19.66,2.26-28.2,6.79c-8.01,4.24-14.63,10.05-19.91,17.38
			c-4.75-7.47-11.02-13.33-18.85-17.53c-8.25-4.42-17.5-6.64-27.75-6.64c-10.25,0-19.51,2.26-27.75,6.79
			c-5.35,2.93-9.96,6.62-13.87,11.04v-14.81h-33.18v144.78h33.18v-86.27c0-6.43,1.4-11.92,4.22-16.44
			c2.81-4.52,6.58-7.99,11.31-10.41c4.72-2.41,10.1-3.62,16.14-3.62c8.85,0,16.29,2.67,22.32,7.99c6.03,5.33,9.05,12.82,9.05,22.47
			v86.27h33.18v-86.27c0-6.43,1.4-11.92,4.22-16.44c2.81-4.52,6.64-7.99,11.46-10.41c4.83-2.41,10.15-3.62,15.99-3.62
			c8.85,0,16.29,2.67,22.32,7.99c6.03,5.33,9.05,12.82,9.05,22.47v86.27h33.18v-93.51c0-11.26-2.52-20.91-7.54-28.95
			C572.53,948.73,565.79,942.5,557.35,938.07z"/>
		<path d="M716.85,950.58c-4.18-4.82-9.14-8.85-14.93-12.05c-8.55-4.72-18.35-7.09-29.41-7.09c-13.08,0-24.88,3.37-35.44,10.1
			c-10.56,6.74-18.9,15.79-25.04,27.15c-6.14,11.36-9.2,24.18-9.2,38.46c0,14.08,3.06,26.8,9.2,38.16
			c6.13,11.36,14.48,20.36,25.04,27c10.56,6.64,22.37,9.95,35.44,9.95c11.06,0,20.91-2.37,29.56-7.09
			c5.76-3.14,10.67-7.09,14.78-11.8v15.87h33.18V934.45h-33.18V950.58z M707.65,1038.51c-7.54,8.25-17.45,12.36-29.71,12.36
			c-8.05,0-15.13-1.85-21.26-5.58c-6.14-3.72-10.96-8.9-14.48-15.54c-3.52-6.64-5.28-14.27-5.28-22.92c0-8.64,1.76-16.29,5.28-22.92
			c3.52-6.64,8.34-11.81,14.48-15.53c6.13-3.72,13.22-5.58,21.26-5.58c8.24,0,15.43,1.86,21.57,5.58
			c6.13,3.72,10.91,8.9,14.33,15.53c3.42,6.64,5.13,14.28,5.13,22.92C718.96,1019.71,715.19,1030.27,707.65,1038.51z"/>
		<path d="M805.97,948.48c-0.26,0.36-0.5,0.74-0.75,1.11v-15.13h-33.18v144.78h33.18V998.7c0-12.47,3.02-21.62,9.05-27.45
			c6.03-5.83,13.67-8.75,22.92-8.75c4.22,0,7.94,0.6,11.16,1.81c2.82,1.06,5.41,2.74,7.76,5.03V933.1c-4.1-1.1-8.5-1.66-13.19-1.66
			C826.43,931.43,814.12,937.12,805.97,948.48z"/>
		<polygon points="939.53,874.13 906.35,874.13 906.35,934.45 871.67,934.45 871.67,964.61 906.35,964.61 906.35,1079.23 
			939.53,1079.23 939.53,964.61 974.22,964.61 974.22,934.45 939.53,934.45 		"/>
		<polygon points="1212.17,868.09 1151.57,1022.17 1091.52,868.09 1053.82,868.09 1139.18,1079.23 1163.31,1079.23 1249.27,868.09 
					"/>
		<path d="M1337.05,950.58c-4.18-4.82-9.14-8.85-14.93-12.05c-8.55-4.72-18.35-7.09-29.41-7.09c-13.08,0-24.88,3.37-35.44,10.1
			c-10.56,6.74-18.9,15.79-25.04,27.15c-6.14,11.36-9.2,24.18-9.2,38.46c0,14.08,3.06,26.8,9.2,38.16
			c6.13,11.36,14.48,20.36,25.04,27c10.56,6.64,22.37,9.95,35.44,9.95c11.06,0,20.91-2.37,29.56-7.09
			c5.76-3.14,10.67-7.09,14.78-11.8v15.87h33.18V934.45h-33.18V950.58z M1327.85,1038.51c-7.54,8.25-17.45,12.36-29.71,12.36
			c-8.05,0-15.13-1.85-21.26-5.58c-6.14-3.72-10.96-8.9-14.48-15.54c-3.52-6.64-5.28-14.27-5.28-22.92c0-8.64,1.76-16.29,5.28-22.92
			c3.52-6.64,8.34-11.81,14.48-15.53c6.13-3.72,13.22-5.58,21.26-5.58c8.24,0,15.43,1.86,21.57,5.58
			c6.13,3.72,10.91,8.9,14.33,15.53c3.42,6.64,5.13,14.28,5.13,22.92C1339.16,1019.71,1335.39,1030.27,1327.85,1038.51z"/>
		<path d="M1488.88,1017.1c0,10.66-2.56,18.85-7.69,24.58c-5.13,5.73-12.52,8.6-22.17,8.6c-6.24,0-11.61-1.3-16.14-3.92
			c-4.52-2.61-7.94-6.38-10.25-11.31c-2.32-4.92-3.47-10.91-3.47-17.95v-82.65h-33.18v84.15c0,12.47,2.66,23.48,7.99,33.03
			c5.32,9.55,12.77,17.04,22.32,22.47c9.55,5.43,20.46,8.14,32.73,8.14c12.47,0,23.42-2.67,32.88-7.99
			c9.45-5.33,16.84-12.77,22.17-22.32c5.33-9.55,7.99-20.66,7.99-33.33v-84.15h-33.18V1017.1z"/>
		<rect x="1541.97" y="862.06" width="33.18" height="217.17"/>
		<polygon points="1690.25,934.45 1655.56,934.45 1655.56,874.13 1622.38,874.13 1622.38,934.45 1587.69,934.45 1587.69,964.61 
			1622.38,964.61 1622.38,1079.23 1655.56,1079.23 1655.56,964.61 1690.25,964.61 		"/>
		<path d="M1786.33,1001.33c-5.74-3.32-11.78-5.94-18.12-7.85c-6.34-1.91-12.39-3.67-18.12-5.29c-5.74-1.61-10.42-3.52-14.05-5.74
			c-3.62-2.21-5.44-5.33-5.44-9.36c0-3.82,1.81-6.74,5.44-8.76c3.63-2.01,8.76-3.02,15.41-3.02c7.05,0,13.29,1.31,18.73,3.93
			c5.44,2.62,10.27,6.55,14.5,11.78l21.15-21.15c-6.04-8.25-13.55-14.45-22.51-18.58c-8.96-4.13-19.29-6.19-30.96-6.19
			c-11.08,0-20.59,1.81-28.55,5.44c-7.96,3.62-14.1,8.76-18.43,15.41c-4.33,6.65-6.49,14.6-6.49,23.86c0,8.66,1.81,15.71,5.44,21.15
			c3.63,5.44,8.31,9.72,14.05,12.84c5.74,3.12,11.78,5.59,18.12,7.4c6.34,1.81,12.39,3.58,18.12,5.29
			c5.74,1.71,10.42,3.78,14.05,6.19c3.62,2.42,5.44,5.84,5.44,10.27c0,4.23-1.92,7.45-5.74,9.67c-3.83,2.22-9.47,3.32-16.92,3.32
			c-8.26,0-15.66-1.46-22.2-4.38c-6.55-2.92-12.34-7.3-17.37-13.14l-21.14,21.14c4.63,5.64,10.07,10.42,16.31,14.35
			c6.24,3.93,13.09,6.95,20.54,9.06c7.45,2.11,15.2,3.17,23.26,3.17c16.92,0,30.31-4.13,40.17-12.39
			c9.87-8.26,14.8-19.43,14.8-33.53c0-8.86-1.81-16.06-5.44-21.6C1796.75,1009.08,1792.07,1004.65,1786.33,1001.33z"/>
	</g>
</g>
</svg>
